<svg width="523" height="169" viewBox="0 0 523 169" fill="none" xmlns="http://www.w3.org/2000/svg">
<g clip-path="url(#clip0_530_3849)">
<circle cx="60" cy="60" r="55" fill="#F7F7F7" stroke="#2A73B7" stroke-width="10"/>
<path d="M58.0979 22.8541C58.6966 21.0115 61.3034 21.0115 61.9021 22.8541L69.2051 45.3303C69.4728 46.1543 70.2407 46.7123 71.1072 46.7123H94.7401C96.6775 46.7123 97.4831 49.1915 95.9156 50.3303L76.7962 64.2214C76.0953 64.7306 75.8019 65.6334 76.0697 66.4574L83.3727 88.9336C83.9714 90.7763 81.8624 92.3085 80.295 91.1697L61.1756 77.2786C60.4746 76.7694 59.5254 76.7694 58.8244 77.2786L39.705 91.1697C38.1376 92.3085 36.0286 90.7763 36.6273 88.9336L43.9303 66.4574C44.1981 65.6334 43.9047 64.7306 43.2038 64.2214L24.0844 50.3303C22.5169 49.1915 23.3225 46.7123 25.2599 46.7123H48.8928C49.7593 46.7123 50.5272 46.1543 50.7949 45.3303L58.0979 22.8541Z" fill="#2A73B7"/>
<path d="M167 70C167 78.2843 152.524 85 128.5 85C104.476 85 90 78.2843 90 70C90 61.7157 104.476 55 128.5 55C152.524 55 167 61.7157 167 70Z" fill="#F7F7F7"/>
<path d="M167 70C167 78.2843 152.524 85 128.5 85C104.476 85 90 78.2843 90 70V95C90 103.284 105.304 110 128.5 110C151.696 110 167 103.284 167 95V70Z" fill="#F7F7F7"/>
<path d="M167 120V95C167 103.284 151.696 110 128.5 110C105.304 110 90 103.284 90 95V120C90 128.284 105.304 135 128.5 135C151.696 135 167 128.284 167 120Z" fill="#F7F7F7"/>
<path d="M167 70C167 78.2843 152.524 85 128.5 85C104.476 85 90 78.2843 90 70M167 70C167 61.7157 152.524 55 128.5 55C104.476 55 90 61.7157 90 70M167 70V121M167 70V95M90 70V121M90 70V95M167 95C167 103.284 151.696 110 128.5 110C105.304 110 90 103.284 90 95M167 95V120C167 128.284 151.696 135 128.5 135C105.304 135 90 128.284 90 120V95" stroke="#2A73B7" stroke-width="10"/>
</g>
<path d="M223.392 125.768C214.88 125.768 208.064 124.168 202.944 120.968C197.824 117.704 195.264 112.744 195.264 106.088C195.264 102.568 195.872 99.88 197.088 98.024C198.304 96.168 200.096 95.24 202.464 95.24C204.192 95.24 205.6 95.688 206.688 96.584C207.776 97.48 208.32 98.632 208.32 100.04C208.32 101.32 208.224 102.44 208.032 103.4C208.032 103.656 207.968 104.104 207.84 104.744C207.776 105.384 207.744 106.056 207.744 106.76C207.744 109.64 209.184 111.784 212.064 113.192C215.008 114.6 219.104 115.304 224.352 115.304C229.792 115.304 234.048 114.344 237.12 112.424C240.192 110.44 241.728 107.688 241.728 104.168C241.728 101.992 241.024 100.136 239.616 98.6C238.208 97 236.448 95.688 234.336 94.664C232.224 93.576 229.248 92.264 225.408 90.728C220.48 88.808 216.448 86.984 213.312 85.256C210.24 83.528 207.584 81.192 205.344 78.248C203.168 75.24 202.08 71.528 202.08 67.112C202.08 62.504 203.296 58.408 205.728 54.824C208.224 51.24 211.776 48.456 216.384 46.472C221.056 44.488 226.528 43.496 232.8 43.496C237.472 43.496 241.76 44.2 245.664 45.608C249.568 46.952 252.672 49.032 254.976 51.848C257.344 54.664 258.528 58.12 258.528 62.216C258.528 66.248 257.92 69.288 256.704 71.336C255.488 73.384 253.696 74.408 251.328 74.408C249.664 74.408 248.256 73.896 247.104 72.872C246.016 71.848 245.472 70.632 245.472 69.224C245.472 68.008 245.568 66.888 245.76 65.864C245.952 63.944 246.048 62.728 246.048 62.216C246.048 59.528 244.736 57.48 242.112 56.072C239.488 54.664 236.224 53.96 232.32 53.96C226.816 53.96 222.592 54.984 219.648 57.032C216.768 59.016 215.328 61.832 215.328 65.48C215.328 67.912 216.064 69.992 217.536 71.72C219.072 73.448 220.96 74.888 223.2 76.04C225.44 77.192 228.576 78.568 232.608 80.168C237.472 82.152 241.376 83.944 244.32 85.544C247.264 87.144 249.76 89.32 251.808 92.072C253.92 94.824 254.976 98.216 254.976 102.248C254.976 109.8 252.096 115.624 246.336 119.72C240.64 123.752 232.992 125.768 223.392 125.768ZM305.049 103.592C305.881 103.592 306.521 103.976 306.969 104.744C307.481 105.512 307.737 106.568 307.737 107.912C307.737 110.472 307.129 112.456 305.913 113.864C303.161 117.256 300.153 120.04 296.889 122.216C293.625 124.392 289.881 125.48 285.657 125.48C272.601 125.48 266.073 116.296 266.073 97.928C266.073 95.112 266.169 92.264 266.361 89.384H262.617C260.697 89.384 259.385 89.032 258.681 88.328C258.041 87.624 257.721 86.504 257.721 84.968C257.721 81.384 259.161 79.592 262.041 79.592H267.513C268.601 72.552 270.265 66.12 272.505 60.296C274.745 54.472 277.433 49.832 280.569 46.376C283.769 42.92 287.193 41.192 290.841 41.192C293.529 41.192 295.641 42.376 297.177 44.744C298.713 47.112 299.481 50.088 299.481 53.672C299.481 63.592 295.321 72.232 287.001 79.592H297.753C298.777 79.592 299.513 79.816 299.961 80.264C300.409 80.712 300.633 81.544 300.633 82.76C300.633 87.176 297.017 89.384 289.785 89.384H278.073C277.945 92.584 277.881 95.08 277.881 96.872C277.881 103.528 278.649 108.2 280.185 110.888C281.785 113.576 284.281 114.92 287.673 114.92C290.425 114.92 292.857 114.088 294.969 112.424C297.081 110.76 299.577 108.264 302.457 104.936C303.225 104.04 304.089 103.592 305.049 103.592ZM288.249 50.408C287.289 50.408 286.201 51.624 284.985 54.056C283.833 56.424 282.713 59.752 281.625 64.04C280.601 68.264 279.737 72.968 279.033 78.152C282.809 74.888 285.625 71.24 287.481 67.208C289.401 63.112 290.361 59.4 290.361 56.072C290.361 52.296 289.657 50.408 288.249 50.408ZM342.737 103.592C343.569 103.592 344.209 103.976 344.656 104.744C345.169 105.512 345.425 106.568 345.425 107.912C345.425 110.472 344.817 112.456 343.601 113.864C341.233 116.744 337.873 119.4 333.521 121.832C329.233 124.264 324.625 125.48 319.697 125.48C312.977 125.48 307.761 123.656 304.049 120.008C300.337 116.36 298.48 111.368 298.48 105.032C298.48 100.616 299.409 96.52 301.265 92.744C303.121 88.904 305.681 85.864 308.945 83.624C312.273 81.384 316.017 80.264 320.177 80.264C323.889 80.264 326.865 81.384 329.105 83.624C331.345 85.8 332.465 88.776 332.465 92.552C332.465 96.968 330.865 100.776 327.665 103.976C324.529 107.112 319.185 109.608 311.633 111.464C313.233 114.408 316.273 115.88 320.753 115.88C323.633 115.88 326.897 114.888 330.545 112.904C334.257 110.856 337.457 108.2 340.145 104.936C340.913 104.04 341.777 103.592 342.737 103.592ZM318.545 89.672C316.177 89.672 314.161 91.048 312.497 93.8C310.897 96.552 310.097 99.88 310.097 103.784V103.976C313.873 103.08 316.849 101.736 319.025 99.944C321.201 98.152 322.289 96.072 322.289 93.704C322.289 92.488 321.937 91.528 321.233 90.824C320.593 90.056 319.697 89.672 318.545 89.672ZM344.424 125.48C341.992 125.48 340.264 124.2 339.24 121.64C338.28 119.08 337.8 114.984 337.8 109.352C337.8 101.032 338.984 93.128 341.352 85.64C341.928 83.784 342.856 82.44 344.136 81.608C345.48 80.712 347.336 80.264 349.704 80.264C350.984 80.264 351.88 80.424 352.392 80.744C352.904 81.064 353.16 81.672 353.16 82.568C353.16 83.592 352.68 85.896 351.72 89.48C351.08 92.04 350.568 94.28 350.184 96.2C349.8 98.12 349.48 100.488 349.224 103.304C351.336 97.8 353.704 93.32 356.328 89.864C358.952 86.408 361.512 83.944 364.008 82.472C366.568 81 368.904 80.264 371.016 80.264C375.176 80.264 377.256 82.344 377.256 86.504C377.256 87.336 376.968 89.352 376.392 92.552C375.88 95.112 375.624 96.712 375.624 97.352C375.624 99.592 376.424 100.712 378.024 100.712C379.816 100.712 382.12 99.304 384.936 96.488C385.768 95.656 386.632 95.24 387.528 95.24C388.36 95.24 389 95.624 389.448 96.392C389.96 97.096 390.216 98.056 390.216 99.272C390.216 101.64 389.576 103.496 388.296 104.84C386.504 106.696 384.392 108.296 381.96 109.64C379.592 110.92 377.064 111.56 374.376 111.56C370.984 111.56 368.392 110.696 366.6 108.968C364.872 107.24 364.008 104.904 364.008 101.96C364.008 101 364.104 100.04 364.296 99.08C364.424 97.8 364.488 96.936 364.488 96.488C364.488 95.464 364.136 94.952 363.432 94.952C362.472 94.952 361.192 96.04 359.592 98.216C358.056 100.328 356.52 103.144 354.984 106.664C353.448 110.184 352.2 113.896 351.24 117.8C350.536 120.808 349.704 122.856 348.744 123.944C347.848 124.968 346.408 125.48 344.424 125.48ZM417.68 103.592C418.512 103.592 419.152 103.976 419.6 104.744C420.112 105.512 420.368 106.568 420.368 107.912C420.368 110.472 419.76 112.456 418.544 113.864C415.792 117.256 412.784 120.04 409.52 122.216C406.32 124.392 402.672 125.48 398.576 125.48C392.944 125.48 388.752 122.92 386 117.8C383.312 112.68 381.968 106.056 381.968 97.928C381.968 90.12 382.96 81.224 384.944 71.24C386.992 61.256 389.968 52.68 393.872 45.512C397.84 38.344 402.544 34.76 407.984 34.76C411.056 34.76 413.456 36.2 415.184 39.08C416.976 41.896 417.872 45.96 417.872 51.272C417.872 58.888 415.76 67.72 411.536 77.768C407.312 87.816 401.584 97.768 394.352 107.624C394.8 110.248 395.536 112.136 396.56 113.288C397.584 114.376 398.928 114.92 400.592 114.92C403.216 114.92 405.52 114.184 407.504 112.712C409.488 111.176 412.016 108.584 415.088 104.936C415.856 104.04 416.72 103.592 417.68 103.592ZM405.872 44.264C404.4 44.264 402.736 46.92 400.88 52.232C399.024 57.544 397.392 64.136 395.984 72.008C394.576 79.88 393.808 87.432 393.68 94.664C398.224 87.176 401.84 79.688 404.528 72.2C407.216 64.648 408.56 57.768 408.56 51.56C408.56 46.696 407.664 44.264 405.872 44.264ZM425.184 73.928C422.496 73.928 420.48 73.32 419.136 72.104C417.792 70.824 417.12 69.064 417.12 66.824C417.12 64.584 417.984 62.728 419.712 61.256C421.504 59.72 423.712 58.952 426.336 58.952C428.704 58.952 430.624 59.528 432.096 60.68C433.568 61.832 434.304 63.464 434.304 65.576C434.304 68.136 433.472 70.184 431.808 71.72C430.144 73.192 427.936 73.928 425.184 73.928ZM424.416 125.48C420.256 125.48 417.216 124.008 415.296 121.064C413.44 118.12 412.512 114.216 412.512 109.352C412.512 106.472 412.864 102.792 413.568 98.312C414.336 93.768 415.296 89.544 416.448 85.64C417.024 83.592 417.792 82.184 418.752 81.416C419.712 80.648 421.248 80.264 423.36 80.264C426.624 80.264 428.256 81.352 428.256 83.528C428.256 85.128 427.648 88.84 426.432 94.664C424.896 101.704 424.128 106.472 424.128 108.968C424.128 110.888 424.384 112.36 424.896 113.384C425.408 114.408 426.272 114.92 427.488 114.92C428.64 114.92 430.08 114.12 431.808 112.52C433.536 110.92 435.84 108.392 438.72 104.936C439.488 104.04 440.352 103.592 441.312 103.592C442.144 103.592 442.784 103.976 443.232 104.744C443.744 105.512 444 106.568 444 107.912C444 110.472 443.392 112.456 442.176 113.864C435.84 121.608 429.92 125.48 424.416 125.48ZM443.049 125.48C440.617 125.48 438.889 124.2 437.865 121.64C436.905 119.08 436.425 114.984 436.425 109.352C436.425 101.032 437.609 93.128 439.977 85.64C440.553 83.784 441.481 82.44 442.761 81.608C444.105 80.712 445.961 80.264 448.329 80.264C449.609 80.264 450.505 80.424 451.017 80.744C451.529 81.064 451.785 81.672 451.785 82.568C451.785 83.592 451.305 85.896 450.345 89.48C449.705 92.04 449.193 94.28 448.809 96.2C448.425 98.12 448.105 100.488 447.849 103.304C449.961 97.8 452.329 93.32 454.953 89.864C457.577 86.408 460.137 83.944 462.633 82.472C465.193 81 467.529 80.264 469.641 80.264C473.801 80.264 475.881 82.344 475.881 86.504C475.881 89 475.177 93.512 473.769 100.04C472.553 105.608 471.945 109.288 471.945 111.08C471.945 113.64 472.873 114.92 474.729 114.92C476.009 114.92 477.513 114.152 479.241 112.616C481.033 111.016 483.401 108.456 486.345 104.936C487.113 104.04 487.977 103.592 488.937 103.592C489.769 103.592 490.409 103.976 490.857 104.744C491.369 105.512 491.625 106.568 491.625 107.912C491.625 110.472 491.017 112.456 489.801 113.864C487.049 117.256 484.073 120.04 480.873 122.216C477.737 124.392 474.153 125.48 470.121 125.48C466.857 125.48 464.393 124.552 462.729 122.696C461.065 120.776 460.233 118.024 460.233 114.44C460.233 112.648 460.681 109.448 461.577 104.84C462.409 100.808 462.825 98.024 462.825 96.488C462.825 95.464 462.473 94.952 461.769 94.952C460.937 94.952 459.753 96.04 458.217 98.216C456.745 100.328 455.209 103.144 453.609 106.664C452.073 110.184 450.825 113.896 449.865 117.8C449.161 120.808 448.329 122.856 447.369 123.944C446.473 124.968 445.033 125.48 443.049 125.48ZM516.402 83.432C518.002 83.432 519.122 83.688 519.762 84.2C520.466 84.648 520.818 85.576 520.818 86.984C520.818 87.752 520.786 88.36 520.722 88.808C520.466 90.792 519.666 95.912 518.322 104.168C517.362 109.736 516.754 113.416 516.498 115.208C514.066 131.72 510.77 144.744 506.61 154.28C502.514 163.88 497.01 168.68 490.098 168.68C486.834 168.68 484.178 167.656 482.13 165.608C480.082 163.624 479.058 161 479.058 157.736C479.058 153.192 480.85 148.296 484.434 143.048C488.018 137.864 494.738 131.464 504.594 123.848L505.17 120.104C504.082 121.832 502.642 123.176 500.85 124.136C499.122 125.032 497.394 125.48 495.666 125.48C491.698 125.48 488.53 124.04 486.162 121.16C483.794 118.28 482.61 114.504 482.61 109.832C482.61 104.712 483.794 99.88 486.162 95.336C488.53 90.728 491.666 87.048 495.57 84.296C499.538 81.48 503.73 80.072 508.146 80.072C509.554 80.072 510.482 80.36 510.93 80.936C511.442 81.448 511.858 82.408 512.178 83.816C513.394 83.56 514.802 83.432 516.402 83.432ZM499.122 115.784C500.594 115.784 502.002 114.888 503.346 113.096C504.69 111.304 505.65 108.744 506.226 105.416L509.298 89C506.674 89.064 504.242 90.088 502.002 92.072C499.762 93.992 497.97 96.552 496.626 99.752C495.282 102.952 494.61 106.344 494.61 109.928C494.61 111.912 494.994 113.384 495.762 114.344C496.594 115.304 497.714 115.784 499.122 115.784ZM491.154 159.368C492.754 159.368 494.546 157.448 496.53 153.608C498.578 149.768 500.53 143.656 502.386 135.272C497.458 139.496 493.906 143.304 491.73 146.696C489.554 150.088 488.466 153.064 488.466 155.624C488.466 156.712 488.658 157.608 489.042 158.312C489.49 159.016 490.194 159.368 491.154 159.368Z" fill="#2A73B7"/>
<defs>
<clipPath id="clip0_530_3849">
<rect width="172" height="140" fill="white"/>
</clipPath>
</defs>
</svg>
