<svg width="172" height="140" viewBox="0 0 172 140" fill="none" xmlns="http://www.w3.org/2000/svg">
<g clip-path="url(#clip0_565_3833)">
<circle cx="60" cy="60" r="55" fill="#F7F7F7" stroke="#2A73B7" stroke-width="10"/>
<path d="M58.0979 22.8541C58.6966 21.0115 61.3034 21.0115 61.9021 22.8541L69.2051 45.3303C69.4728 46.1543 70.2407 46.7123 71.1072 46.7123H94.7401C96.6775 46.7123 97.4831 49.1915 95.9156 50.3303L76.7962 64.2214C76.0953 64.7306 75.8019 65.6334 76.0697 66.4574L83.3727 88.9336C83.9714 90.7763 81.8624 92.3085 80.295 91.1697L61.1756 77.2786C60.4746 76.7694 59.5254 76.7694 58.8244 77.2786L39.705 91.1697C38.1376 92.3085 36.0286 90.7763 36.6273 88.9336L43.9303 66.4574C44.1981 65.6334 43.9047 64.7306 43.2038 64.2214L24.0844 50.3303C22.5169 49.1915 23.3225 46.7123 25.2599 46.7123H48.8928C49.7593 46.7123 50.5272 46.1543 50.7949 45.3303L58.0979 22.8541Z" fill="#2A73B7"/>
<path d="M167 70C167 78.2843 152.524 85 128.5 85C104.476 85 90 78.2843 90 70C90 61.7157 104.476 55 128.5 55C152.524 55 167 61.7157 167 70Z" fill="#F7F7F7"/>
<path d="M167 70C167 78.2843 152.524 85 128.5 85C104.476 85 90 78.2843 90 70V95C90 103.284 105.304 110 128.5 110C151.696 110 167 103.284 167 95V70Z" fill="#F7F7F7"/>
<path d="M167 120V95C167 103.284 151.696 110 128.5 110C105.304 110 90 103.284 90 95V120C90 128.284 105.304 135 128.5 135C151.696 135 167 128.284 167 120Z" fill="#F7F7F7"/>
<path d="M167 70C167 78.2843 152.524 85 128.5 85C104.476 85 90 78.2843 90 70M167 70C167 61.7157 152.524 55 128.5 55C104.476 55 90 61.7157 90 70M167 70V121M167 70V95M90 70V121M90 70V95M167 95C167 103.284 151.696 110 128.5 110C105.304 110 90 103.284 90 95M167 95V120C167 128.284 151.696 135 128.5 135C105.304 135 90 128.284 90 120V95" stroke="#2A73B7" stroke-width="10"/>
</g>
<defs>
<clipPath id="clip0_565_3833">
<rect width="172" height="140" fill="white"/>
</clipPath>
</defs>
</svg>
